# Blender v2.83.0 OBJ File: 'emitter.blend'
# www.blender.org
mtllib emitter.mtl
o Cube_Cube.003
v -0.499351 -1.000000 0.611262
v -1.000000 -0.060369 1.000000
v -1.000000 -1.000000 -1.000000
v -1.000000 1.000000 -1.000000
v 1.000000 -1.000000 1.000000
v 1.000000 -0.060369 1.000000
v 1.000000 -1.000000 -1.000000
v 1.000000 1.000000 -1.000000
v -2.212704 -1.000000 -1.000000
v -2.212704 -1.000000 0.611262
v -2.212704 0.244940 1.000000
v -2.212704 0.244940 -1.000000
v -0.604843 2.465722 0.604843
v -0.604843 2.465722 -0.604843
v 0.604843 2.465722 -0.604843
v 0.604843 2.465722 0.604843
v -0.499351 -1.000000 1.482690
v -1.000000 -0.060369 1.482690
v 1.000000 -0.060369 1.482690
v 1.000000 -1.000000 1.482690
v -3.115587 -1.000000 -1.000000
v -3.115587 -1.000000 1.000000
v -3.115587 -0.835992 1.000000
v -3.115587 -0.835992 -1.000000
v -1.000000 -1.000000 2.667625
v -1.000000 -0.540125 2.667625
v 1.000000 -0.540125 2.667625
v 1.000000 -1.000000 2.667625
v -1.000000 -1.777801 -1.000000
v -0.499351 -1.777801 0.611262
v 1.000000 -1.777801 -1.000000
v 1.000000 -1.777801 1.000000
v -2.212704 -1.777801 -1.000000
v -2.212704 -1.777801 0.611262
v -0.499351 -1.777801 1.482690
v 1.000000 -1.777801 1.482690
v -4.453423 -1.777801 -1.000000
v -4.453423 -1.777801 1.000000
v -1.000000 -1.777801 2.667625
v 1.000000 -1.777801 2.667625
v -1.000000 -3.218188 -1.000000
v -1.000000 -3.218188 1.000000
v 1.000000 -3.218188 -1.000000
v 1.000000 -3.218188 1.000000
v -2.212704 -3.218188 -1.000000
v -2.212704 -3.218188 1.000000
v -1.000000 -3.218188 1.482690
v 1.000000 -3.218188 1.482690
v -4.451591 -1.956980 -1.000000
v -4.451591 -1.956980 1.000000
v -1.000000 -3.218188 2.667625
v 1.000000 -3.218188 2.667625
v -1.000000 -4.889585 -1.000000
v -1.000000 -4.889585 1.000000
v 1.000000 -4.889585 -1.000000
v 1.000000 -4.889585 1.000000
v -2.212704 -4.889585 -1.000000
v -2.212704 -4.889585 1.000000
v -1.000000 -4.889585 1.482690
v 1.000000 -4.889585 1.482690
v -3.115587 -4.889585 -0.514214
v -3.115587 -4.889585 0.273517
v -1.000000 -4.889585 2.667625
v 1.000000 -4.889585 2.667625
v -6.987526 -4.889585 -0.514214
v -6.987526 -3.218188 -1.000000
v -6.987526 -3.218188 1.000000
v -6.987526 -4.889585 0.273517
vt 0.625000 0.250000
vt 0.375000 0.250000
vt 0.375000 0.250000
vt 0.625000 0.250000
vt 0.625000 0.500000
vt 0.375000 0.500000
vt 0.625000 0.750000
vt 0.375000 0.750000
vt 0.625000 1.000000
vt 0.375000 1.000000
vt 0.375000 1.000000
vt 0.625000 1.000000
vt 0.375000 1.000000
vt 0.375000 1.000000
vt 0.375000 1.000000
vt 0.375000 1.000000
vt 0.625000 0.250000
vt 0.625000 0.500000
vt 0.875000 0.750000
vt 0.875000 0.500000
vt 0.875000 0.500000
vt 0.875000 0.750000
vt 0.625000 1.000000
vt 0.875000 0.750000
vt 0.875000 0.500000
vt 0.375000 0.500000
vt 0.375000 0.250000
vt 0.875000 0.500000
vt 0.875000 0.750000
vt 0.625000 0.750000
vt 0.625000 1.000000
vt 0.375000 0.750000
vt 0.375000 0.750000
vt 0.375000 0.750000
vt 0.375000 0.750000
vt 0.375000 0.750000
vt 0.625000 0.750000
vt 0.375000 0.000000
vt 0.625000 0.000000
vt 0.625000 0.250000
vt 0.375000 0.250000
vt 0.625000 1.000000
vt 0.625000 0.750000
vt 0.625000 1.000000
vt 0.375000 1.000000
vt 0.375000 0.000000
vt 0.375000 0.250000
vt 0.375000 0.250000
vt 0.375000 0.000000
vt 0.375000 1.000000
vt 0.375000 1.000000
vt 0.375000 0.750000
vt 0.375000 1.000000
vt 0.375000 1.000000
vt 0.375000 1.000000
vt 0.375000 0.750000
vt 0.375000 0.750000
vt 0.375000 0.500000
vt 0.375000 1.000000
vt 0.375000 0.250000
vt 0.375000 1.000000
vt 0.375000 0.750000
vt 0.375000 1.000000
vt 0.375000 1.000000
vt 0.375000 0.750000
vt 0.375000 0.750000
vt 0.375000 0.500000
vt 0.375000 0.250000
vt 0.375000 0.250000
vt 0.375000 0.250000
vt 0.375000 1.000000
vt 0.375000 0.250000
vt 0.375000 1.000000
vt 0.125000 0.500000
vt 0.125000 0.750000
vt 0.125000 0.750000
vt 0.125000 0.500000
vt 0.125000 0.750000
vt 0.125000 0.750000
vt 0.125000 0.750000
vt 0.125000 0.500000
vt 0.375000 0.250000
vt 0.375000 0.250000
vt 0.375000 1.000000
vt 0.375000 0.250000
vt 0.375000 1.000000
vt 0.375000 0.000000
vt 0.375000 0.000000
vt 0.125000 0.750000
vt 0.125000 0.500000
vt 0.375000 1.000000
vt 0.375000 1.000000
vn 0.0000 0.0000 -1.0000
vn 1.0000 0.0000 0.0000
vn -0.8825 -0.4702 0.0000
vn 0.2351 -0.2022 0.9507
vn 0.0000 0.2603 -0.9655
vn -0.7675 0.6411 0.0000
vn -0.0357 -0.3423 0.9389
vn -0.1764 0.9514 0.2522
vn 0.0000 1.0000 0.0000
vn 0.9789 0.1938 0.0640
vn -0.9789 0.1938 0.0640
vn 0.0000 0.1546 0.9880
vn -1.0000 0.0000 0.0000
vn 0.3443 -0.2497 0.9050
vn 0.0000 0.0000 1.0000
vn -0.9097 -0.3254 -0.2581
vn 0.0000 0.9269 0.3753
vn -0.9999 -0.0102 0.0000
vn 0.0000 0.2606 0.9655
vn -0.9212 0.0000 -0.3892
vn -0.5026 0.8645 0.0000
vn -0.2147 -0.1639 -0.9628
vn 0.1485 0.2310 0.9616
vn -0.9446 0.3283 0.0000
vn -0.9646 0.1676 -0.2038
vn 0.0000 -1.0000 0.0000
vn 0.0385 -0.1956 -0.9799
vn -0.3075 -0.2347 0.9222
vn 0.0562 -0.2856 0.9567
vn -0.4453 0.8954 0.0000
usemtl None
s off
f 4/1/1 3/2/1 9/3/1 12/4/1
f 3/2/1 4/1/1 8/5/1 7/6/1
f 7/6/2 8/5/2 6/7/2 5/8/2
f 2/9/3 1/10/3 17/11/3 18/12/3
f 10/13/4 22/14/4 38/15/4 34/16/4
f 8/5/5 4/1/5 14/17/5 15/18/5
f 11/19/6 12/20/6 24/21/6 23/22/6
f 1/10/7 2/9/7 11/23/7 10/13/7
f 2/24/8 4/25/8 12/20/8 11/19/8
f 3/2/1 7/6/1 31/26/1 29/27/1
f 15/18/9 14/28/9 13/29/9 16/30/9
f 6/7/10 8/5/10 15/18/10 16/30/10
f 4/25/11 2/24/11 13/29/11 14/28/11
f 2/9/12 6/7/12 16/30/12 13/31/12
f 20/32/2 28/33/2 40/34/2 36/35/2
f 7/6/2 5/8/2 32/36/2 31/26/2
f 6/7/9 2/9/9 18/12/9 19/37/9
f 5/8/2 6/7/2 19/37/2 20/32/2
f 22/38/13 23/39/13 24/40/13 21/41/13
f 5/8/2 20/32/2 36/35/2 32/36/2
f 12/4/1 9/3/1 21/41/1 24/40/1
f 10/13/14 11/23/14 23/42/14 22/14/14
f 28/33/15 27/43/15 26/44/15 25/45/15
f 18/12/16 17/11/16 25/45/16 26/44/16
f 19/37/17 18/12/17 26/44/17 27/43/17
f 20/32/2 19/37/2 27/43/2 28/33/2
f 38/46/18 37/47/18 49/48/18 50/49/18
f 40/34/15 39/50/15 51/51/15 52/52/15
f 30/53/19 34/16/19 46/54/19 42/55/19
f 32/36/2 36/35/2 48/56/2 44/57/2
f 31/26/2 32/36/2 44/57/2 43/58/2
f 25/45/20 17/11/20 35/59/20 39/50/20
f 17/11/13 1/10/13 30/53/13 35/59/13
f 28/33/15 25/45/15 39/50/15 40/34/15
f 1/10/15 10/13/15 34/16/15 30/53/15
f 22/38/21 21/41/21 37/47/21 38/46/21
f 21/41/1 9/3/1 33/60/1 37/47/1
f 9/3/1 3/2/1 29/27/1 33/60/1
f 52/52/15 51/51/15 63/61/15 64/62/15
f 42/55/15 46/54/15 58/63/15 54/64/15
f 44/57/2 48/56/2 60/65/2 56/66/2
f 43/58/2 44/57/2 56/66/2 55/67/2
f 49/48/22 45/68/22 57/69/22 61/70/22
f 36/35/2 40/34/2 52/52/2 48/56/2
f 34/16/23 38/15/23 50/71/23 46/54/23
f 29/27/1 31/26/1 43/58/1 41/72/1
f 35/59/24 30/53/24 42/55/24 47/73/24
f 39/50/25 35/59/25 47/73/25 51/51/25
f 33/60/1 29/27/1 41/72/1 45/68/1
f 37/47/1 33/60/1 45/68/1 49/48/1
f 53/74/26 55/67/26 56/66/26 54/75/26
f 53/74/26 54/75/26 58/76/26 57/77/26
f 59/78/26 60/65/26 64/62/26 63/79/26
f 54/75/26 56/66/26 60/65/26 59/78/26
f 57/77/26 58/76/26 62/80/26 61/81/26
f 49/48/27 61/70/27 65/82/27 66/83/27
f 48/56/2 52/52/2 64/62/2 60/65/2
f 46/54/28 50/71/28 62/84/28 58/63/28
f 41/72/1 43/58/1 55/67/1 53/85/1
f 47/73/13 42/55/13 54/64/13 59/86/13
f 51/51/13 47/73/13 59/86/13 63/61/13
f 45/68/1 41/72/1 53/85/1 57/69/1
f 67/87/13 66/83/13 65/82/13 68/88/13
f 61/81/26 62/80/26 68/89/26 65/90/26
f 62/84/29 50/71/29 67/91/29 68/92/29
f 50/49/30 49/48/30 66/83/30 67/87/30
