# Blender v2.83.0 OBJ File: 'emitter.blend'
# www.blender.org
mtllib emitter.mtl
o Emitter_Cube
v -0.500000 1.500000 0.500000
v -0.500000 -1.500000 0.500000
v -0.500000 1.500000 -0.500000
v -0.500000 -1.500000 -0.500000
v 0.500000 1.500000 0.500000
v 0.500000 -1.500000 0.500000
v 0.500000 1.500000 -0.500000
v 0.500000 -1.500000 -0.500000
v -0.000000 0.787868 -0.500000
v 0.000000 0.787868 0.500000
v -0.212132 1.000000 -0.500000
v -0.212132 1.000000 0.500000
v -0.000000 1.212132 -0.500000
v 0.000000 1.212132 0.500000
v 0.212132 1.000000 -0.500000
v 0.212132 1.000000 0.500000
vt 0.625000 0.500000
vt 0.875000 0.500000
vt 0.875000 0.750000
vt 0.625000 0.750000
vt 0.375000 0.750000
vt 0.583333 0.821967
vt 0.565656 0.875000
vt 0.583333 0.928033
vt 0.625000 1.000000
vt 0.375000 1.000000
vt 0.375000 0.000000
vt 0.625000 0.000000
vt 0.625000 0.250000
vt 0.375000 0.250000
vt 0.125000 0.500000
vt 0.375000 0.500000
vt 0.125000 0.750000
vt 0.583333 0.321967
vt 0.565656 0.375000
vt 0.583333 0.428033
vt 0.375000 0.520833
vt 0.375000 0.729167
vt 0.625000 0.729167
vt 0.625000 0.520833
vt 0.601011 0.375000
vt 0.375000 0.020833
vt 0.375000 0.229167
vt 0.625000 0.229167
vt 0.625000 0.020833
vt 0.601011 0.875000
vt 0.125000 0.520833
vt 0.125000 0.729167
vt 0.875000 0.729167
vt 0.875000 0.520833
vn 0.0000 1.0000 0.0000
vn 0.0000 0.0000 -1.0000
vn 1.0000 0.0000 0.0000
vn 0.0000 -1.0000 0.0000
vn -1.0000 0.0000 0.0000
vn 0.0000 0.0000 1.0000
vn 0.7071 0.7071 -0.0000
vn -0.7071 -0.7071 0.0000
vn -0.7071 0.7071 0.0000
vn 0.7071 -0.7071 -0.0000
usemtl Material
s off
f 1/1/1 5/2/1 7/3/1 3/4/1
f 4/5/2 3/4/2 11/6/2 9/7/2 15/8/2 7/9/2 8/10/2
f 8/11/3 7/12/3 5/13/3 6/14/3
f 6/15/4 2/16/4 4/5/4 8/17/4
f 2/16/5 1/1/5 3/4/5 4/5/5
f 6/14/6 5/13/6 16/18/6 10/19/6 12/20/6 1/1/6 2/16/6
f 10/21/7 9/22/7 11/23/7 12/24/7
f 1/1/6 12/20/6 14/25/6 16/18/6 5/13/6
f 15/26/8 16/27/8 14/28/8 13/29/8
f 7/9/2 15/8/2 13/30/2 11/6/2 3/4/2
f 16/31/9 15/32/9 9/22/9 10/21/9
f 12/24/10 11/23/10 13/33/10 14/34/10
